<?xml version="1.0" encoding="UTF-8" standalone="no"?>
<!DOCTYPE svg PUBLIC "-//W3C//DTD SVG 1.1//EN"
 "http://www.w3.org/Graphics/SVG/1.1/DTD/svg11.dtd">
<!-- Generated by graphviz version 12.1.1 (20240910.0053)
 -->
<!-- Title: INFRA Pages: 1 -->
<svg width="1307pt" height="512pt"
 viewBox="0.00 0.00 1306.92 512.00" xmlns="http://www.w3.org/2000/svg" xmlns:xlink="http://www.w3.org/1999/xlink">
<g id="graph0" class="graph" transform="scale(1 1) rotate(0) translate(4 508)">
<title>INFRA</title>
<polygon fill="white" stroke="none" points="-4,4 -4,-508 1302.92,-508 1302.92,4 -4,4"/>
<!-- azurerm_resource_group.main -->
<g id="node1" class="node">
<title>azurerm_resource_group.main</title>
<path fill="#e6e6e6" stroke="black" stroke-width="2" d="M861.64,-72C861.64,-72 678.21,-72 678.21,-72 672.21,-72 666.21,-66 666.21,-60 666.21,-60 666.21,-12 666.21,-12 666.21,-6 672.21,0 678.21,0 678.21,0 861.64,0 861.64,0 867.64,0 873.64,-6 873.64,-12 873.64,-12 873.64,-60 873.64,-60 873.64,-66 867.64,-72 861.64,-72"/>
<text text-anchor="middle" x="769.93" y="-40.2" font-family="Arial" font-size="14.00">azurerm_resource_group.main</text>
<text text-anchor="middle" x="769.93" y="-23.4" font-family="Arial" font-size="14.00">(azurerm_resource_group)</text>
</g>
<!-- azurerm_virtual_network.main -->
<g id="node2" class="node">
<title>azurerm_virtual_network.main</title>
<path fill="#e6e6e6" stroke="black" stroke-width="2" d="M1008.69,-180C1008.69,-180 829.17,-180 829.17,-180 823.17,-180 817.17,-174 817.17,-168 817.17,-168 817.17,-120 817.17,-120 817.17,-114 823.17,-108 829.17,-108 829.17,-108 1008.69,-108 1008.69,-108 1014.69,-108 1020.69,-114 1020.69,-120 1020.69,-120 1020.69,-168 1020.69,-168 1020.69,-174 1014.69,-180 1008.69,-180"/>
<text text-anchor="middle" x="918.93" y="-148.2" font-family="Arial" font-size="14.00">azurerm_virtual_network.main</text>
<text text-anchor="middle" x="918.93" y="-131.4" font-family="Arial" font-size="14.00">(azurerm_virtual_network)</text>
</g>
<!-- azurerm_virtual_network.main&#45;&gt;azurerm_resource_group.main -->
<g id="edge1" class="edge">
<title>azurerm_virtual_network.main&#45;&gt;azurerm_resource_group.main</title>
<path fill="none" stroke="black" d="M869.31,-107.7C856.31,-98.46 842.17,-88.39 828.74,-78.84"/>
<polygon fill="black" stroke="black" points="830.99,-76.15 820.81,-73.2 826.93,-81.85 830.99,-76.15"/>
</g>
<!-- azurerm_subnet.main -->
<g id="node3" class="node">
<title>azurerm_subnet.main</title>
<path fill="#e6e6e6" stroke="black" stroke-width="2" d="M918.63,-288C918.63,-288 791.23,-288 791.23,-288 785.23,-288 779.23,-282 779.23,-276 779.23,-276 779.23,-228 779.23,-228 779.23,-222 785.23,-216 791.23,-216 791.23,-216 918.63,-216 918.63,-216 924.63,-216 930.63,-222 930.63,-228 930.63,-228 930.63,-276 930.63,-276 930.63,-282 924.63,-288 918.63,-288"/>
<text text-anchor="middle" x="854.93" y="-256.2" font-family="Arial" font-size="14.00">azurerm_subnet.main</text>
<text text-anchor="middle" x="854.93" y="-239.4" font-family="Arial" font-size="14.00">(azurerm_subnet)</text>
</g>
<!-- azurerm_subnet.main&#45;&gt;azurerm_resource_group.main -->
<g id="edge2" class="edge">
<title>azurerm_subnet.main&#45;&gt;azurerm_resource_group.main</title>
<path fill="none" stroke="black" d="M828.39,-215.83C820.97,-204.79 813.44,-192.27 807.93,-180 794.03,-149.07 784.37,-112.03 778.26,-83.39"/>
<polygon fill="black" stroke="black" points="781.76,-83.04 776.32,-73.95 774.9,-84.45 781.76,-83.04"/>
</g>
<!-- azurerm_subnet.main&#45;&gt;azurerm_virtual_network.main -->
<g id="edge3" class="edge">
<title>azurerm_subnet.main&#45;&gt;azurerm_virtual_network.main</title>
<path fill="none" stroke="black" d="M876.24,-215.7C881.26,-207.39 886.67,-198.42 891.91,-189.75"/>
<polygon fill="black" stroke="black" points="894.75,-191.81 896.93,-181.44 888.76,-188.19 894.75,-191.81"/>
</g>
<!-- azurerm_public_ip.lb -->
<g id="node4" class="node">
<title>azurerm_public_ip.lb</title>
<path fill="#e6e6e6" stroke="black" stroke-width="2" d="M471.52,-180C471.52,-180 350.34,-180 350.34,-180 344.34,-180 338.34,-174 338.34,-168 338.34,-168 338.34,-120 338.34,-120 338.34,-114 344.34,-108 350.34,-108 350.34,-108 471.52,-108 471.52,-108 477.52,-108 483.52,-114 483.52,-120 483.52,-120 483.52,-168 483.52,-168 483.52,-174 477.52,-180 471.52,-180"/>
<text text-anchor="middle" x="410.93" y="-148.2" font-family="Arial" font-size="14.00">azurerm_public_ip.lb</text>
<text text-anchor="middle" x="410.93" y="-131.4" font-family="Arial" font-size="14.00">(azurerm_public_ip)</text>
</g>
<!-- azurerm_public_ip.lb&#45;&gt;azurerm_resource_group.main -->
<g id="edge4" class="edge">
<title>azurerm_public_ip.lb&#45;&gt;azurerm_resource_group.main</title>
<path fill="none" stroke="black" d="M484.01,-121.42C533.22,-106.89 599.13,-87.43 655.26,-70.86"/>
<polygon fill="black" stroke="black" points="655.94,-74.31 664.54,-68.12 653.95,-67.59 655.94,-74.31"/>
</g>
<!-- azurerm_lb.main -->
<g id="node5" class="node">
<title>azurerm_lb.main</title>
<path fill="#e78f81" stroke="black" stroke-width="2" d="M431.06,-288C431.06,-288 334.8,-288 334.8,-288 328.8,-288 322.8,-282 322.8,-276 322.8,-276 322.8,-228 322.8,-228 322.8,-222 328.8,-216 334.8,-216 334.8,-216 431.06,-216 431.06,-216 437.06,-216 443.06,-222 443.06,-228 443.06,-228 443.06,-276 443.06,-276 443.06,-282 437.06,-288 431.06,-288"/>
<text text-anchor="middle" x="382.93" y="-256.2" font-family="Arial" font-size="14.00">azurerm_lb.main</text>
<text text-anchor="middle" x="382.93" y="-239.4" font-family="Arial" font-size="14.00">(azurerm_lb)</text>
</g>
<!-- azurerm_lb.main&#45;&gt;azurerm_resource_group.main -->
<g id="edge5" class="edge">
<title>azurerm_lb.main&#45;&gt;azurerm_resource_group.main</title>
<path fill="none" stroke="black" d="M443.4,-217.56C511.76,-179.76 623.05,-118.22 696.38,-77.67"/>
<polygon fill="black" stroke="black" points="697.64,-80.97 704.7,-73.07 694.25,-74.85 697.64,-80.97"/>
</g>
<!-- azurerm_lb.main&#45;&gt;azurerm_public_ip.lb -->
<g id="edge6" class="edge">
<title>azurerm_lb.main&#45;&gt;azurerm_public_ip.lb</title>
<path fill="none" stroke="black" d="M392.25,-215.7C394.33,-207.84 396.56,-199.38 398.74,-191.15"/>
<polygon fill="black" stroke="black" points="402.09,-192.17 401.26,-181.61 395.32,-190.38 402.09,-192.17"/>
</g>
<!-- azurerm_lb_backend_address_pool.main -->
<g id="node6" class="node">
<title>azurerm_lb_backend_address_pool.main</title>
<path fill="#e6e6e6" stroke="black" stroke-width="2" d="M507.34,-396C507.34,-396 258.51,-396 258.51,-396 252.51,-396 246.51,-390 246.51,-384 246.51,-384 246.51,-336 246.51,-336 246.51,-330 252.51,-324 258.51,-324 258.51,-324 507.34,-324 507.34,-324 513.34,-324 519.34,-330 519.34,-336 519.34,-336 519.34,-384 519.34,-384 519.34,-390 513.34,-396 507.34,-396"/>
<text text-anchor="middle" x="382.93" y="-364.2" font-family="Arial" font-size="14.00">azurerm_lb_backend_address_pool.main</text>
<text text-anchor="middle" x="382.93" y="-347.4" font-family="Arial" font-size="14.00">(azurerm_lb_backend_address_pool)</text>
</g>
<!-- azurerm_lb_backend_address_pool.main&#45;&gt;azurerm_lb.main -->
<g id="edge7" class="edge">
<title>azurerm_lb_backend_address_pool.main&#45;&gt;azurerm_lb.main</title>
<path fill="none" stroke="black" d="M382.93,-323.7C382.93,-315.93 382.93,-307.57 382.93,-299.43"/>
<polygon fill="black" stroke="black" points="386.43,-299.66 382.93,-289.66 379.43,-299.66 386.43,-299.66"/>
</g>
<!-- azurerm_lb_probe.main -->
<g id="node7" class="node">
<title>azurerm_lb_probe.main</title>
<path fill="#e6e6e6" stroke="black" stroke-width="2" d="M151.85,-396C151.85,-396 12,-396 12,-396 6,-396 0,-390 0,-384 0,-384 0,-336 0,-336 0,-330 6,-324 12,-324 12,-324 151.85,-324 151.85,-324 157.85,-324 163.85,-330 163.85,-336 163.85,-336 163.85,-384 163.85,-384 163.85,-390 157.85,-396 151.85,-396"/>
<text text-anchor="middle" x="81.93" y="-364.2" font-family="Arial" font-size="14.00">azurerm_lb_probe.main</text>
<text text-anchor="middle" x="81.93" y="-347.4" font-family="Arial" font-size="14.00">(azurerm_lb_probe)</text>
</g>
<!-- azurerm_lb_probe.main&#45;&gt;azurerm_lb.main -->
<g id="edge8" class="edge">
<title>azurerm_lb_probe.main&#45;&gt;azurerm_lb.main</title>
<path fill="none" stroke="black" d="M164.18,-330.04C210.49,-313.73 267.74,-293.56 312.05,-277.96"/>
<polygon fill="black" stroke="black" points="313.04,-281.32 321.31,-274.7 310.72,-274.72 313.04,-281.32"/>
</g>
<!-- azurerm_lb_rule.main -->
<g id="node8" class="node">
<title>azurerm_lb_rule.main</title>
<path fill="#e6e6e6" stroke="black" stroke-width="2" d="M140.62,-504C140.62,-504 13.23,-504 13.23,-504 7.23,-504 1.23,-498 1.23,-492 1.23,-492 1.23,-444 1.23,-444 1.23,-438 7.23,-432 13.23,-432 13.23,-432 140.62,-432 140.62,-432 146.62,-432 152.62,-438 152.62,-444 152.62,-444 152.62,-492 152.62,-492 152.62,-498 146.62,-504 140.62,-504"/>
<text text-anchor="middle" x="76.93" y="-472.2" font-family="Arial" font-size="14.00">azurerm_lb_rule.main</text>
<text text-anchor="middle" x="76.93" y="-455.4" font-family="Arial" font-size="14.00">(azurerm_lb_rule)</text>
</g>
<!-- azurerm_lb_rule.main&#45;&gt;azurerm_lb.main -->
<g id="edge9" class="edge">
<title>azurerm_lb_rule.main&#45;&gt;azurerm_lb.main</title>
<path fill="none" stroke="black" d="M128.74,-431.6C143.49,-420.75 159.26,-408.39 172.93,-396 204.86,-367.04 203.5,-349.95 237.93,-324 260.35,-307.1 287.43,-292.55 312.09,-281.1"/>
<polygon fill="black" stroke="black" points="313.45,-284.33 321.11,-277.01 310.56,-277.96 313.45,-284.33"/>
</g>
<!-- azurerm_lb_rule.main&#45;&gt;azurerm_lb_backend_address_pool.main -->
<g id="edge10" class="edge">
<title>azurerm_lb_rule.main&#45;&gt;azurerm_lb_backend_address_pool.main</title>
<path fill="none" stroke="black" d="M152.81,-435.4C155.88,-434.24 158.93,-433.1 161.93,-432 192.06,-420.98 224.82,-409.94 255.67,-399.97"/>
<polygon fill="black" stroke="black" points="256.6,-403.35 265.05,-396.95 254.46,-396.68 256.6,-403.35"/>
</g>
<!-- azurerm_lb_rule.main&#45;&gt;azurerm_lb_probe.main -->
<g id="edge11" class="edge">
<title>azurerm_lb_rule.main&#45;&gt;azurerm_lb_probe.main</title>
<path fill="none" stroke="black" d="M78.59,-431.7C78.96,-423.93 79.35,-415.57 79.74,-407.43"/>
<polygon fill="black" stroke="black" points="83.22,-407.81 80.2,-397.65 76.23,-407.48 83.22,-407.81"/>
</g>
<!-- azurerm_network_security_group.main -->
<g id="node9" class="node">
<title>azurerm_network_security_group.main</title>
<path fill="#e6e6e6" stroke="black" stroke-width="2" d="M710.93,-288C710.93,-288 476.93,-288 476.93,-288 470.93,-288 464.93,-282 464.93,-276 464.93,-276 464.93,-228 464.93,-228 464.93,-222 470.93,-216 476.93,-216 476.93,-216 710.93,-216 710.93,-216 716.93,-216 722.93,-222 722.93,-228 722.93,-228 722.93,-276 722.93,-276 722.93,-282 716.93,-288 710.93,-288"/>
<text text-anchor="middle" x="593.93" y="-256.2" font-family="Arial" font-size="14.00">azurerm_network_security_group.main</text>
<text text-anchor="middle" x="593.93" y="-239.4" font-family="Arial" font-size="14.00">(azurerm_network_security_group)</text>
</g>
<!-- azurerm_network_security_group.main&#45;&gt;azurerm_resource_group.main -->
<g id="edge12" class="edge">
<title>azurerm_network_security_group.main&#45;&gt;azurerm_resource_group.main</title>
<path fill="none" stroke="black" d="M622.99,-215.66C653.31,-178.8 700.9,-120.94 733.66,-81.1"/>
<polygon fill="black" stroke="black" points="736.21,-83.51 739.86,-73.56 730.8,-79.06 736.21,-83.51"/>
</g>
<!-- azurerm_network_interface.main -->
<g id="node10" class="node">
<title>azurerm_network_interface.main</title>
<path fill="#e6e6e6" stroke="black" stroke-width="2" d="M935.86,-396C935.86,-396 739.99,-396 739.99,-396 733.99,-396 727.99,-390 727.99,-384 727.99,-384 727.99,-336 727.99,-336 727.99,-330 733.99,-324 739.99,-324 739.99,-324 935.86,-324 935.86,-324 941.86,-324 947.86,-330 947.86,-336 947.86,-336 947.86,-384 947.86,-384 947.86,-390 941.86,-396 935.86,-396"/>
<text text-anchor="middle" x="837.93" y="-364.2" font-family="Arial" font-size="14.00">azurerm_network_interface.main</text>
<text text-anchor="middle" x="837.93" y="-347.4" font-family="Arial" font-size="14.00">(azurerm_network_interface)</text>
</g>
<!-- azurerm_network_interface.main&#45;&gt;azurerm_resource_group.main -->
<g id="edge13" class="edge">
<title>azurerm_network_interface.main&#45;&gt;azurerm_resource_group.main</title>
<path fill="none" stroke="black" d="M793.97,-323.56C784.21,-313.23 775.21,-301.15 769.93,-288 742.98,-220.9 750.97,-135.32 759.92,-83.41"/>
<polygon fill="black" stroke="black" points="763.34,-84.19 761.69,-73.73 756.45,-82.94 763.34,-84.19"/>
</g>
<!-- azurerm_network_interface.main&#45;&gt;azurerm_subnet.main -->
<g id="edge14" class="edge">
<title>azurerm_network_interface.main&#45;&gt;azurerm_subnet.main</title>
<path fill="none" stroke="black" d="M843.59,-323.7C844.84,-315.93 846.17,-307.57 847.48,-299.43"/>
<polygon fill="black" stroke="black" points="850.92,-300.06 849.05,-289.64 844.01,-298.96 850.92,-300.06"/>
</g>
<!-- azurerm_network_interface_security_group_association.main -->
<g id="node11" class="node">
<title>azurerm_network_interface_security_group_association.main</title>
<path fill="#e6e6e6" stroke="black" stroke-width="2" d="M1024.58,-504C1024.58,-504 651.27,-504 651.27,-504 645.27,-504 639.27,-498 639.27,-492 639.27,-492 639.27,-444 639.27,-444 639.27,-438 645.27,-432 651.27,-432 651.27,-432 1024.58,-432 1024.58,-432 1030.58,-432 1036.58,-438 1036.58,-444 1036.58,-444 1036.58,-492 1036.58,-492 1036.58,-498 1030.58,-504 1024.58,-504"/>
<text text-anchor="middle" x="837.93" y="-472.2" font-family="Arial" font-size="14.00">azurerm_network_interface_security_group_association.main</text>
<text text-anchor="middle" x="837.93" y="-455.4" font-family="Arial" font-size="14.00">(azurerm_network_interface_security_group_association)</text>
</g>
<!-- azurerm_network_interface_security_group_association.main&#45;&gt;azurerm_network_security_group.main -->
<g id="edge16" class="edge">
<title>azurerm_network_interface_security_group_association.main&#45;&gt;azurerm_network_security_group.main</title>
<path fill="none" stroke="black" d="M770.28,-431.63C752.81,-421.18 734.54,-409.02 718.93,-396 683.93,-366.81 650.29,-327.46 626.74,-297.43"/>
<polygon fill="black" stroke="black" points="629.59,-295.38 620.69,-289.62 624.05,-299.67 629.59,-295.38"/>
</g>
<!-- azurerm_network_interface_security_group_association.main&#45;&gt;azurerm_network_interface.main -->
<g id="edge15" class="edge">
<title>azurerm_network_interface_security_group_association.main&#45;&gt;azurerm_network_interface.main</title>
<path fill="none" stroke="black" d="M837.93,-431.7C837.93,-423.93 837.93,-415.57 837.93,-407.43"/>
<polygon fill="black" stroke="black" points="841.43,-407.66 837.93,-397.66 834.43,-407.66 841.43,-407.66"/>
</g>
<!-- azurerm_availability_set.main -->
<g id="node12" class="node">
<title>azurerm_availability_set.main</title>
<path fill="#e6e6e6" stroke="black" stroke-width="2" d="M1265.13,-180C1265.13,-180 1088.72,-180 1088.72,-180 1082.72,-180 1076.72,-174 1076.72,-168 1076.72,-168 1076.72,-120 1076.72,-120 1076.72,-114 1082.72,-108 1088.72,-108 1088.72,-108 1265.13,-108 1265.13,-108 1271.13,-108 1277.13,-114 1277.13,-120 1277.13,-120 1277.13,-168 1277.13,-168 1277.13,-174 1271.13,-180 1265.13,-180"/>
<text text-anchor="middle" x="1176.93" y="-148.2" font-family="Arial" font-size="14.00">azurerm_availability_set.main</text>
<text text-anchor="middle" x="1176.93" y="-131.4" font-family="Arial" font-size="14.00">(azurerm_availability_set)</text>
</g>
<!-- azurerm_availability_set.main&#45;&gt;azurerm_resource_group.main -->
<g id="edge17" class="edge">
<title>azurerm_availability_set.main&#45;&gt;azurerm_resource_group.main</title>
<path fill="none" stroke="black" d="M1076.32,-111.75C1071.8,-110.46 1067.32,-109.21 1062.93,-108 1004.61,-92 939.25,-75.98 885.08,-63.21"/>
<polygon fill="black" stroke="black" points="886.06,-59.85 875.53,-60.97 884.46,-66.66 886.06,-59.85"/>
</g>
<!-- azurerm_linux_virtual_machine.main -->
<g id="node13" class="node">
<title>azurerm_linux_virtual_machine.main</title>
<path fill="#b7e0ff" stroke="black" stroke-width="2" d="M1286.92,-504C1286.92,-504 1066.93,-504 1066.93,-504 1060.93,-504 1054.93,-498 1054.93,-492 1054.93,-492 1054.93,-444 1054.93,-444 1054.93,-438 1060.93,-432 1066.93,-432 1066.93,-432 1286.92,-432 1286.92,-432 1292.92,-432 1298.92,-438 1298.92,-444 1298.92,-444 1298.92,-492 1298.92,-492 1298.92,-498 1292.92,-504 1286.92,-504"/>
<text text-anchor="middle" x="1176.93" y="-472.2" font-family="Arial" font-size="14.00">azurerm_linux_virtual_machine.main</text>
<text text-anchor="middle" x="1176.93" y="-455.4" font-family="Arial" font-size="14.00">(azurerm_linux_virtual_machine)</text>
</g>
<!-- azurerm_linux_virtual_machine.main&#45;&gt;azurerm_resource_group.main -->
<g id="edge18" class="edge">
<title>azurerm_linux_virtual_machine.main&#45;&gt;azurerm_resource_group.main</title>
<path fill="none" stroke="black" d="M1163.41,-431.62C1129.55,-343.31 1042.87,-119.45 1029.93,-108 990.18,-72.83 934.62,-54.89 885.05,-45.81"/>
<polygon fill="black" stroke="black" points="885.86,-42.4 875.41,-44.16 884.68,-49.3 885.86,-42.4"/>
</g>
<!-- azurerm_linux_virtual_machine.main&#45;&gt;azurerm_network_interface.main -->
<g id="edge19" class="edge">
<title>azurerm_linux_virtual_machine.main&#45;&gt;azurerm_network_interface.main</title>
<path fill="none" stroke="black" d="M1063.57,-431.56C1030.05,-421.07 993.23,-409.56 959.23,-398.93"/>
<polygon fill="black" stroke="black" points="960.33,-395.61 949.74,-395.96 958.24,-402.29 960.33,-395.61"/>
</g>
<!-- azurerm_linux_virtual_machine.main&#45;&gt;azurerm_availability_set.main -->
<g id="edge20" class="edge">
<title>azurerm_linux_virtual_machine.main&#45;&gt;azurerm_availability_set.main</title>
<path fill="none" stroke="black" d="M1176.93,-431.62C1176.93,-373.21 1176.93,-256.61 1176.93,-191.57"/>
<polygon fill="black" stroke="black" points="1180.43,-191.95 1176.93,-181.95 1173.43,-191.95 1180.43,-191.95"/>
</g>
<!-- azurerm_network_interface_backend_address_pool_association.main -->
<g id="node14" class="node">
<title>azurerm_network_interface_backend_address_pool_association.main</title>
<path fill="#e6e6e6" stroke="black" stroke-width="2" d="M609.06,-504C609.06,-504 182.8,-504 182.8,-504 176.8,-504 170.8,-498 170.8,-492 170.8,-492 170.8,-444 170.8,-444 170.8,-438 176.8,-432 182.8,-432 182.8,-432 609.06,-432 609.06,-432 615.06,-432 621.06,-438 621.06,-444 621.06,-444 621.06,-492 621.06,-492 621.06,-498 615.06,-504 609.06,-504"/>
<text text-anchor="middle" x="395.93" y="-472.2" font-family="Arial" font-size="14.00">azurerm_network_interface_backend_address_pool_association.main</text>
<text text-anchor="middle" x="395.93" y="-455.4" font-family="Arial" font-size="14.00">(azurerm_network_interface_backend_address_pool_association)</text>
</g>
<!-- azurerm_network_interface_backend_address_pool_association.main&#45;&gt;azurerm_lb_backend_address_pool.main -->
<g id="edge22" class="edge">
<title>azurerm_network_interface_backend_address_pool_association.main&#45;&gt;azurerm_lb_backend_address_pool.main</title>
<path fill="none" stroke="black" d="M391.6,-431.7C390.64,-423.93 389.62,-415.57 388.62,-407.43"/>
<polygon fill="black" stroke="black" points="392.11,-407.14 387.42,-397.64 385.16,-408 392.11,-407.14"/>
</g>
<!-- azurerm_network_interface_backend_address_pool_association.main&#45;&gt;azurerm_network_interface.main -->
<g id="edge21" class="edge">
<title>azurerm_network_interface_backend_address_pool_association.main&#45;&gt;azurerm_network_interface.main</title>
<path fill="none" stroke="black" d="M543.72,-431.56C599.95,-418.07 663.31,-402.88 716.79,-390.05"/>
<polygon fill="black" stroke="black" points="717.32,-393.52 726.23,-387.79 715.69,-386.72 717.32,-393.52"/>
</g>
</g>
</svg>
